<?xml version="1.0" encoding="UTF-8"?>
<!DOCTYPE svg PUBLIC "-//W3C//DTD SVG 1.1//EN" "http://www.w3.org/Graphics/SVG/1.1/DTD/svg11.dtd">
<svg xmlns="http://www.w3.org/2000/svg" version="1.1" width="500px" height="500px" style="shape-rendering:geometricPrecision; text-rendering:geometricPrecision; image-rendering:optimizeQuality; fill-rule:evenodd; clip-rule:evenodd" xmlns:xlink="http://www.w3.org/1999/xlink">
<g><path style="opacity:1" fill="#000000" d="M -0.5,-0.5 C 166.167,-0.5 332.833,-0.5 499.5,-0.5C 499.5,166.167 499.5,332.833 499.5,499.5C 332.833,499.5 166.167,499.5 -0.5,499.5C -0.5,332.833 -0.5,166.167 -0.5,-0.5 Z"/></g>
<g><path style="opacity:1" fill="#02ef69" d="M 138.5,117.5 C 146.631,118.242 148.631,122.242 144.5,129.5C 143.501,144.152 143.167,158.818 143.5,173.5C 131.377,174.646 120.544,178.979 111,186.5C 101.167,176.667 91.3333,166.833 81.5,157C 74.876,157.044 71.7093,153.877 72,147.5C 76,142.167 80,142.167 84,147.5C 84.3333,149.5 84.6667,151.5 85,153.5C 93.6809,162.348 102.514,171.014 111.5,179.5C 119.717,173.891 128.717,170.224 138.5,168.5C 138.667,155.496 138.5,142.496 138,129.5C 135.7,128.403 134.533,126.569 134.5,124C 135.205,121.458 136.539,119.292 138.5,117.5 Z"/></g>
<g><path style="opacity:1" fill="#050e06" d="M 139.5,119.5 C 142.352,119.352 144.019,120.686 144.5,123.5C 142.167,128.833 139.833,128.833 137.5,123.5C 137.752,121.927 138.418,120.594 139.5,119.5 Z"/></g>
<g><path style="opacity:1" fill="#02f069" d="M 58.5,144.5 C 64.8576,144.693 68.0242,148.026 68,154.5C 84.5,171 101,187.5 117.5,204C 118.5,204.667 119.5,204.667 120.5,204C 127.188,198.322 134.855,194.822 143.5,193.5C 143.799,195.604 143.466,197.604 142.5,199.5C 120.987,206.52 109.321,221.353 107.5,244C 108.986,267.528 120.986,282.362 143.5,288.5C 143.808,290.924 143.474,293.257 142.5,295.5C 134.168,293.501 126.835,289.668 120.5,284C 119.5,283.333 118.5,283.333 117.5,284C 101,300.5 84.5,317 68,333.5C 67.6846,341.512 63.8513,344.345 56.5,342C 53.3244,334.465 55.991,330.465 64.5,330C 81,313.5 97.5,297 114,280.5C 114.667,279.5 114.667,278.5 114,277.5C 106.43,268.641 102.263,258.308 101.5,246.5C 76.8243,246.167 52.1577,246.5 27.5,247.5C 24.9884,250.709 21.9884,251.209 18.5,249C 16.0092,246.032 15.8426,242.865 18,239.5C 21.9132,236.682 25.4132,237.182 28.5,241C 52.8311,241.5 77.1644,241.667 101.5,241.5C 101.857,229.588 106.024,219.255 114,210.5C 114.667,209.5 114.667,208.5 114,207.5C 97.5,191 81,174.5 64.5,158C 54.1126,156.847 52.1126,152.347 58.5,144.5 Z"/></g>
<g><path style="opacity:1" fill="#040f06" d="M 75.5,146.5 C 81.5548,145.942 82.8881,148.109 79.5,153C 74.7915,153.082 73.4582,150.915 75.5,146.5 Z"/></g>
<g><path style="opacity:1" fill="#041007" d="M 59.5,147.5 C 63.9346,147.752 65.268,149.919 63.5,154C 57.6815,154.526 56.3481,152.359 59.5,147.5 Z"/></g>
<g><path style="opacity:1" fill="#efefef" d="M 56.5,162.5 C 63.5,161.33 67,164.33 67,171.5C 76.8333,181.333 86.6667,191.167 96.5,201C 89.1297,210.609 84.7964,221.443 83.5,233.5C 68.8295,233.333 54.1629,233.5 39.5,234C 35.8187,238.422 31.9854,238.588 28,234.5C 26.4787,229.203 28.312,225.869 33.5,224.5C 35.9546,224.894 37.9546,226.06 39.5,228C 52.4957,228.5 65.4957,228.667 78.5,228.5C 80.0945,218.81 83.7611,209.977 89.5,202C 80.5,193 71.5,184 62.5,175C 53.5814,173.999 51.5814,169.832 56.5,162.5 Z"/></g>
<g><path style="opacity:1" fill="#121212" d="M 58.5,164.5 C 62.9764,164.8 64.3097,166.967 62.5,171C 56.3389,171.878 55.0055,169.711 58.5,164.5 Z"/></g>
<g><path style="opacity:1" fill="#111111" d="M 31.5,227.5 C 37.0159,227.473 38.3492,229.64 35.5,234C 29.6815,234.526 28.3481,232.359 31.5,227.5 Z"/></g>
<g><path style="opacity:1" fill="#f1f1f1" d="M 227.5,227.5 C 232.646,227.181 237.646,227.847 242.5,229.5C 243.78,231.724 243.447,233.724 241.5,235.5C 237.664,233.687 233.664,233.187 229.5,234C 226.936,236.276 227.27,238.276 230.5,240C 235.605,241.028 240.105,243.195 244,246.5C 246.411,254.521 243.577,259.355 235.5,261C 230.637,261.809 225.97,261.142 221.5,259C 220.306,256.556 220.806,254.389 223,252.5C 228.604,256.811 233.771,256.478 238.5,251.5C 238.167,250.833 237.833,250.167 237.5,249.5C 233.126,247.764 228.793,245.931 224.5,244C 219.764,237.359 220.764,231.859 227.5,227.5 Z"/></g>
<g><path style="opacity:1" fill="#fdfdfd" d="M 126.5,228.5 C 133.5,228.5 140.5,228.5 147.5,228.5C 147.5,230.167 147.5,231.833 147.5,233.5C 142.5,233.5 137.5,233.5 132.5,233.5C 132.5,236.167 132.5,238.833 132.5,241.5C 137.167,241.5 141.833,241.5 146.5,241.5C 146.5,243.167 146.5,244.833 146.5,246.5C 141.833,246.5 137.167,246.5 132.5,246.5C 132.5,249.167 132.5,251.833 132.5,254.5C 137.833,254.5 143.167,254.5 148.5,254.5C 148.5,256.5 148.5,258.5 148.5,260.5C 141.167,260.5 133.833,260.5 126.5,260.5C 126.5,249.833 126.5,239.167 126.5,228.5 Z"/></g>
<g><path style="opacity:1" fill="#ececec" d="M 268.5,227.5 C 270.833,227.5 273.167,227.5 275.5,227.5C 275.5,230.5 275.5,233.5 275.5,236.5C 280.765,235.571 285.265,236.904 289,240.5C 290.42,247.05 290.92,253.716 290.5,260.5C 288.167,260.5 285.833,260.5 283.5,260.5C 283.829,254.794 283.495,249.128 282.5,243.5C 280.253,242.626 277.92,242.292 275.5,242.5C 275.5,248.5 275.5,254.5 275.5,260.5C 273.167,260.5 270.833,260.5 268.5,260.5C 268.5,249.5 268.5,238.5 268.5,227.5 Z"/></g>
<g><path style="opacity:1" fill="#f6f6f6" d="M 340.5,259.5 C 332.948,262.921 326.114,261.921 320,256.5C 315.495,248.208 317.329,241.874 325.5,237.5C 328.833,237.5 332.167,237.5 335.5,237.5C 335.5,234.5 335.5,231.5 335.5,228.5C 337.167,228.5 338.833,228.5 340.5,228.5C 340.5,238.833 340.5,249.167 340.5,259.5 Z"/></g>
<g><path style="opacity:1" fill="#a5a5a5" d="M 340.5,259.5 C 340.5,249.167 340.5,238.833 340.5,228.5C 338.833,228.5 337.167,228.5 335.5,228.5C 335.5,231.5 335.5,234.5 335.5,237.5C 332.167,237.5 328.833,237.5 325.5,237.5C 328.287,236.523 331.287,236.19 334.5,236.5C 334.5,233.5 334.5,230.5 334.5,227.5C 336.833,227.5 339.167,227.5 341.5,227.5C 341.828,238.346 341.494,249.013 340.5,259.5 Z"/></g>
<g><path style="opacity:1" fill="#6a6a6a" d="M 374.5,228.5 C 372.5,228.5 370.5,228.5 368.5,228.5C 368.5,239.167 368.5,249.833 368.5,260.5C 367.505,249.679 367.172,238.679 367.5,227.5C 370.059,227.198 372.393,227.532 374.5,228.5 Z"/></g>
<g><path style="opacity:1" fill="#fefffe" d="M 374.5,228.5 C 374.5,239.167 374.5,249.833 374.5,260.5C 372.5,260.5 370.5,260.5 368.5,260.5C 368.5,249.833 368.5,239.167 368.5,228.5C 370.5,228.5 372.5,228.5 374.5,228.5 Z"/></g>
<g><path style="opacity:1" fill="#e4e4e4" d="M 378.5,228.5 C 382.701,228.426 384.035,230.259 382.5,234C 377.728,234.81 376.395,232.977 378.5,228.5 Z"/></g>
<g><path style="opacity:1" fill="#7a7a7a" d="M 126.5,228.5 C 133.648,227.508 140.981,227.175 148.5,227.5C 148.5,229.833 148.5,232.167 148.5,234.5C 143.5,234.5 138.5,234.5 133.5,234.5C 133.5,236.5 133.5,238.5 133.5,240.5C 138.032,240.182 142.366,240.515 146.5,241.5C 141.833,241.5 137.167,241.5 132.5,241.5C 132.5,238.833 132.5,236.167 132.5,233.5C 137.5,233.5 142.5,233.5 147.5,233.5C 147.5,231.833 147.5,230.167 147.5,228.5C 140.5,228.5 133.5,228.5 126.5,228.5 Z"/></g>
<g><path style="opacity:1" fill="#eaeaea" d="M 155.5,236.5 C 159.182,236.335 162.848,236.501 166.5,237C 168.286,237.785 169.786,238.951 171,240.5C 172.377,247.076 172.877,253.743 172.5,260.5C 167.187,261.362 161.854,261.529 156.5,261C 150.208,258.526 148.875,254.36 152.5,248.5C 156.626,246.719 160.959,246.052 165.5,246.5C 165.64,244.876 164.973,243.71 163.5,243C 159.909,242.211 156.409,242.378 153,243.5C 151.916,240.341 152.75,238.008 155.5,236.5 Z"/></g>
<g><path style="opacity:1" fill="#ebebeb" d="M 179.5,236.5 C 184.206,236.085 188.706,236.752 193,238.5C 193.47,240.549 192.636,241.883 190.5,242.5C 188.855,242.059 187.189,241.726 185.5,241.5C 183.681,241.342 182.348,242.009 181.5,243.5C 185.97,245.322 190.136,247.655 194,250.5C 195.184,258.367 191.684,262.034 183.5,261.5C 179.932,261.592 176.932,260.425 174.5,258C 174.725,256.379 175.558,255.212 177,254.5C 180.441,255.382 183.941,255.716 187.5,255.5C 187.719,254.325 187.386,253.325 186.5,252.5C 181.585,251.799 177.752,249.466 175,245.5C 174.377,241.412 175.877,238.412 179.5,236.5 Z"/></g>
<g><path style="opacity:1" fill="#ececec" d="M 196.5,237.5 C 198.833,237.5 201.167,237.5 203.5,237.5C 203.334,242.844 203.501,248.177 204,253.5C 206.381,254.435 208.881,254.768 211.5,254.5C 211.5,248.833 211.5,243.167 211.5,237.5C 213.833,237.5 216.167,237.5 218.5,237.5C 218.945,246.94 218.445,256.274 217,265.5C 214.307,268.857 210.807,270.191 206.5,269.5C 200.328,270.663 197.994,268.33 199.5,262.5C 203.108,263.593 206.775,263.76 210.5,263C 211.337,261.989 211.67,260.822 211.5,259.5C 206.235,260.429 201.735,259.096 198,255.5C 196.59,249.621 196.09,243.621 196.5,237.5 Z"/></g>
<g><path style="opacity:1" fill="#ebebeb" d="M 254.5,236.5 C 257.518,236.335 260.518,236.502 263.5,237C 267.131,238.682 267.298,240.849 264,243.5C 255.65,240.848 252.317,243.848 254,252.5C 254.833,253.333 255.667,254.167 256.5,255C 259.614,255.123 262.614,255.29 265.5,255.5C 267.114,258.157 266.448,259.99 263.5,261C 251.333,262.167 245.833,256.667 247,244.5C 248.69,240.979 251.19,238.312 254.5,236.5 Z"/></g>
<g><path style="opacity:1" fill="#f1f1f1" d="M 300.5,236.5 C 310.537,235.873 315.87,240.54 316.5,250.5C 310.794,250.171 305.128,250.505 299.5,251.5C 300.313,252.814 301.313,253.981 302.5,255C 306.092,255.671 309.426,255.338 312.5,254C 315.506,256.635 315.172,258.635 311.5,260C 297.822,262.99 291.655,257.49 293,243.5C 294.742,240.254 297.242,237.921 300.5,236.5 Z"/></g>
<g><path style="opacity:1" fill="#ebebeb" d="M 343.5,237.5 C 345.833,237.5 348.167,237.5 350.5,237.5C 350.334,243.176 350.501,248.843 351,254.5C 353.381,255.435 355.881,255.768 358.5,255.5C 358.5,249.5 358.5,243.5 358.5,237.5C 360.833,237.5 363.167,237.5 365.5,237.5C 365.5,245.167 365.5,252.833 365.5,260.5C 346.12,264.784 338.787,257.117 343.5,237.5 Z"/></g>
<g><path style="opacity:1" fill="#fefffe" d="M 377.5,237.5 C 379.5,237.5 381.5,237.5 383.5,237.5C 383.5,245.167 383.5,252.833 383.5,260.5C 381.5,260.5 379.5,260.5 377.5,260.5C 377.5,252.833 377.5,245.167 377.5,237.5 Z"/></g>
<g><path style="opacity:1" fill="#fafafa" d="M 389.5,236.5 C 393.514,236.334 397.514,236.501 401.5,237C 403.081,237.707 404.581,238.54 406,239.5C 407.425,246.385 407.925,253.385 407.5,260.5C 405.5,260.5 403.5,260.5 401.5,260.5C 401.666,255.156 401.499,249.823 401,244.5C 398.519,242.686 395.685,242.02 392.5,242.5C 392.5,248.5 392.5,254.5 392.5,260.5C 390.5,260.5 388.5,260.5 386.5,260.5C 386.5,252.833 386.5,245.167 386.5,237.5C 387.791,237.737 388.791,237.404 389.5,236.5 Z"/></g>
<g><path style="opacity:1" fill="#f1f1f1" d="M 417.5,236.5 C 422.667,236.09 427.667,236.757 432.5,238.5C 433.665,246.813 433.832,255.147 433,263.5C 432.727,265.329 431.893,266.829 430.5,268C 425.924,269.476 421.257,269.81 416.5,269C 414.845,267.556 414.178,265.722 414.5,263.5C 418.182,263.665 421.848,263.499 425.5,263C 426.337,261.989 426.67,260.822 426.5,259.5C 414.185,260.351 409.018,254.685 411,242.5C 413.063,240.266 415.229,238.266 417.5,236.5 Z"/></g>
<g><path style="opacity:1" fill="#09170c" d="M 19.5,240.5 C 21.604,240.201 23.604,240.534 25.5,241.5C 26.8774,245.959 25.2107,247.793 20.5,247C 18.1656,245.158 17.8323,242.991 19.5,240.5 Z"/></g>
<g><path style="opacity:1" fill="#101010" d="M 301.5,242.5 C 304.908,241.828 307.575,242.828 309.5,245.5C 306.167,246.833 302.833,246.833 299.5,245.5C 300.193,244.482 300.859,243.482 301.5,242.5 Z"/></g>
<g><path style="opacity:1" fill="#0a0a0a" d="M 327.5,242.5 C 329.833,242.5 332.167,242.5 334.5,242.5C 334.5,246.833 334.5,251.167 334.5,255.5C 328.368,257.023 325.035,254.69 324.5,248.5C 324.628,246.045 325.628,244.045 327.5,242.5 Z"/></g>
<g><path style="opacity:1" fill="#080808" d="M 419.5,242.5 C 421.833,242.5 424.167,242.5 426.5,242.5C 426.5,246.167 426.5,249.833 426.5,253.5C 416.918,253.965 414.585,250.299 419.5,242.5 Z"/></g>
<g><path style="opacity:1" fill="#02ef69" d="M 31.5,250.5 C 34.7648,250.299 37.4315,251.466 39.5,254C 54.1629,254.5 68.8295,254.667 83.5,254.5C 84.7995,266.569 89.1328,277.402 96.5,287C 86.3333,297.167 76.1667,307.333 66,317.5C 65.982,325.082 62.482,327.582 55.5,325C 51.8401,317.009 54.5068,313.009 63.5,313C 72.3478,304.319 81.0144,295.486 89.5,286.5C 83.8815,278.267 80.2148,269.267 78.5,259.5C 65.4957,259.333 52.4957,259.5 39.5,260C 36.7995,263.74 33.4662,264.407 29.5,262C 26.4944,257.528 27.1611,253.695 31.5,250.5 Z"/></g>
<g><path style="opacity:1" fill="#111111" d="M 158.5,250.5 C 160.833,250.5 163.167,250.5 165.5,250.5C 165.5,252.167 165.5,253.833 165.5,255.5C 162.813,255.664 160.146,255.497 157.5,255C 156.419,253.289 156.752,251.789 158.5,250.5 Z"/></g>
<g><path style="opacity:1" fill="#040f06" d="M 31.5,253.5 C 37.0159,253.473 38.3492,255.64 35.5,260C 30.5705,260.427 29.2372,258.26 31.5,253.5 Z"/></g>
<g><path style="opacity:1" fill="#02e062" d="M 270.5,267.5 C 272.167,267.5 273.833,267.5 275.5,267.5C 275.5,268.833 275.5,270.167 275.5,271.5C 277.167,271.5 278.833,271.5 280.5,271.5C 280.5,272.833 280.5,274.167 280.5,275.5C 278.833,275.5 277.167,275.5 275.5,275.5C 275.5,277.833 275.5,280.167 275.5,282.5C 277.167,282.5 278.833,282.5 280.5,282.5C 280.5,283.833 280.5,285.167 280.5,286.5C 277.552,286.777 274.719,286.444 272,285.5C 271.147,281.425 269.981,277.425 268.5,273.5C 269.754,271.666 270.421,269.666 270.5,267.5 Z"/></g>
<g><path style="opacity:1" fill="#02e263" d="M 227.5,271.5 C 230.579,271.26 233.579,271.593 236.5,272.5C 237.711,273.274 237.711,274.107 236.5,275C 234.473,274.502 232.473,274.669 230.5,275.5C 231.714,277.069 233.381,277.902 235.5,278C 238.95,280.158 239.283,282.658 236.5,285.5C 233.227,286.585 229.894,286.752 226.5,286C 225.663,284.989 225.33,283.822 225.5,282.5C 228.208,283.449 230.874,283.449 233.5,282.5C 230.698,281.288 228.198,279.621 226,277.5C 225.252,275.16 225.752,273.16 227.5,271.5 Z"/></g>
<g><path style="opacity:1" fill="#02e866" d="M 257.5,271.5 C 260.978,271.184 264.312,271.684 267.5,273C 266.953,273.925 266.287,274.758 265.5,275.5C 263.484,274.294 261.484,274.294 259.5,275.5C 261.937,276.926 264.437,278.259 267,279.5C 267.896,282.025 267.396,284.192 265.5,286C 261.638,286.913 257.972,286.58 254.5,285C 255.047,284.075 255.713,283.242 256.5,282.5C 258.839,283.724 261.172,283.724 263.5,282.5C 261.063,281.074 258.563,279.741 256,278.5C 255.167,275.829 255.667,273.496 257.5,271.5 Z"/></g>
<g><path style="opacity:1" fill="#02ee69" d="M 296.5,279.5 C 292.774,279.177 289.107,279.511 285.5,280.5C 285.624,281.107 285.957,281.44 286.5,281.5C 287.496,282.665 288.829,283.332 290.5,283.5C 292.135,282.954 293.801,282.62 295.5,282.5C 295.67,283.822 295.337,284.989 294.5,286C 285.339,288.162 281.173,284.662 282,275.5C 285.705,271.018 290.038,270.351 295,273.5C 296.128,275.345 296.628,277.345 296.5,279.5 Z"/></g>
<g><path style="opacity:1" fill="#02ed68" d="M 298.5,271.5 C 303.756,271.885 308.923,271.885 314,271.5C 315.967,271.542 317.801,272.042 319.5,273C 320.467,277.401 320.8,281.901 320.5,286.5C 319.167,286.5 317.833,286.5 316.5,286.5C 316.5,282.833 316.5,279.167 316.5,275.5C 314.833,275.5 313.167,275.5 311.5,275.5C 311.5,279.167 311.5,282.833 311.5,286.5C 310.167,286.5 308.833,286.5 307.5,286.5C 307.5,282.833 307.5,279.167 307.5,275.5C 305.833,275.5 304.167,275.5 302.5,275.5C 302.5,279.167 302.5,282.833 302.5,286.5C 301.167,286.5 299.833,286.5 298.5,286.5C 298.5,281.5 298.5,276.5 298.5,271.5 Z"/></g>
<g><path style="opacity:1" fill="#02e866" d="M 324.5,271.5 C 327.978,271.184 331.312,271.684 334.5,273C 333.953,273.925 333.287,274.758 332.5,275.5C 330.484,274.294 328.484,274.294 326.5,275.5C 328.937,276.926 331.437,278.259 334,279.5C 334.896,282.025 334.396,284.192 332.5,286C 328.638,286.913 324.972,286.58 321.5,285C 322.047,284.075 322.713,283.242 323.5,282.5C 325.839,283.724 328.172,283.724 330.5,282.5C 328.063,281.074 325.563,279.741 323,278.5C 322.167,275.829 322.667,273.496 324.5,271.5 Z"/></g>
<g><path style="opacity:1" fill="#02e966" d="M 239.5,271.5 C 240.833,271.5 242.167,271.5 243.5,271.5C 243.335,274.85 243.502,278.183 244,281.5C 245.699,282.406 247.533,282.739 249.5,282.5C 249.5,278.833 249.5,275.167 249.5,271.5C 250.833,271.5 252.167,271.5 253.5,271.5C 253.666,277.509 253.499,283.509 253,289.5C 250.005,292.265 246.505,293.098 242.5,292C 241.663,290.989 241.33,289.822 241.5,288.5C 243.857,288.663 246.19,288.497 248.5,288C 248.957,287.586 249.291,287.086 249.5,286.5C 240.073,285.849 236.739,280.849 239.5,271.5 Z"/></g>
<g><path style="opacity:1" fill="#010d05" d="M 287.5,274.5 C 289.681,274.284 291.347,275.117 292.5,277C 290.421,277.808 288.421,277.641 286.5,276.5C 286.863,275.817 287.196,275.15 287.5,274.5 Z"/></g>
<g><path style="opacity:1" fill="#02853b" d="M 296.5,279.5 C 293.167,280.167 289.833,280.833 286.5,281.5C 285.957,281.44 285.624,281.107 285.5,280.5C 289.107,279.511 292.774,279.177 296.5,279.5 Z"/></g>
<g><path style="opacity:1" fill="#02ec68" d="M 110.5,301.5 C 120.178,308.337 130.844,313.003 142.5,315.5C 143.167,330.167 143.833,344.833 144.5,359.5C 145.086,359.709 145.586,360.043 146,360.5C 148.341,368.488 145.508,371.655 137.5,370C 133.548,366.412 133.548,362.912 137.5,359.5C 138.499,346.183 138.833,332.85 138.5,319.5C 129.343,318.394 121.01,315.227 113.5,310C 112.5,309.333 111.5,309.333 110.5,310C 102,318.5 93.5,327 85,335.5C 84.6204,343.435 80.7871,345.935 73.5,343C 70.3216,335.468 72.9883,331.468 81.5,331C 91.3689,321.298 101.036,311.465 110.5,301.5 Z"/></g>
<g><path style="opacity:1" fill="#07140a" d="M 57.5,316.5 C 63.0159,316.473 64.3492,318.64 61.5,323C 56.5705,323.427 55.2372,321.26 57.5,316.5 Z"/></g>
<g><path style="opacity:1" fill="#000100" d="M 59.5,333.5 C 64.4928,333.997 65.4928,336.164 62.5,340C 57.3823,339.824 56.3823,337.658 59.5,333.5 Z"/></g>
<g><path style="opacity:1" fill="#030e05" d="M 76.5,334.5 C 80.9764,334.8 82.3097,336.967 80.5,341C 74.3389,341.878 73.0055,339.711 76.5,334.5 Z"/></g>
<g><path style="opacity:1" fill="#040f06" d="M 138.5,361.5 C 144.555,360.942 145.888,363.109 142.5,368C 137.791,368.082 136.458,365.915 138.5,361.5 Z"/></g>
</svg>
